<svg width="512" height="512" viewBox="0 0 512 512" fill="none" xmlns="http://www.w3.org/2000/svg">
<path d="M510.074 259.594C500.249 210.547 445.513 176.448 370.66 165.705C398.73 176.448 417.443 193.731 421.653 215.685C431.478 266.6 360.367 323.12 262.122 342.272C163.878 361.423 76.3929 335.732 66.5684 285.285C62.3579 263.33 73.1181 240.442 95.1062 219.422C29.6097 257.725 -8.28478 310.041 1.53971 359.088C16.5103 435.694 142.825 475.865 283.175 448.306C423.525 420.746 525.512 336.199 510.542 259.594H510.074Z" fill="white"/>
<path d="M235.924 83.0265L260.719 170.843L348.671 195.6L260.719 220.356L235.924 307.706L211.129 220.356L123.176 195.6L211.129 170.843L235.924 83.0265Z" fill="white"/>
<path d="M135.808 55L147.503 86.7634L179.316 98.4411L147.503 110.119L135.808 141.882L124.112 110.119L91.8314 98.4411L124.112 86.7634L135.808 55Z" fill="white"/>
</svg>
